<svg width="18" height="23" viewBox="0 0 18 23" fill="none" xmlns="http://www.w3.org/2000/svg">
<path id="Vector" fill-rule="evenodd" clip-rule="evenodd" d="M0.75 8.34449C0.75 3.95118 4.45092 0.376953 9 0.376953C13.549 0.376953 17.2499 3.95118 17.25 8.34449C17.25 13.7967 9.86706 21.8008 9.55272 22.1389C9.25801 22.456 8.74253 22.4566 8.44728 22.1389C8.13294 21.8008 0.75 13.7967 0.75 8.34449ZM4.84926 8.34449C4.84926 10.5549 6.71124 12.3532 9 12.3532C11.2887 12.3532 13.1507 10.5549 13.1507 8.34453C13.1507 6.13413 11.2887 4.33584 9 4.33584C6.71129 4.33584 4.84926 6.13409 4.84926 8.34449Z" fill="#01602A"/>
</svg>
